<svg width="21" height="21" viewBox="0 0 21 21" fill="none" xmlns="http://www.w3.org/2000/svg">
<path d="M20.3207 2.52696L20.3914 2.45625L20.3207 2.38554L18.6145 0.679289L18.5438 0.608579L18.473 0.679289L10.5 8.65233L2.52696 0.679289L2.45625 0.608579L2.38554 0.679289L0.679289 2.38554L0.608579 2.45625L0.679289 2.52696L8.65233 10.5L0.679289 18.473L0.608579 18.5438L0.679289 18.6145L2.38554 20.3207L2.45625 20.3914L2.52696 20.3207L10.5 12.3477L18.473 20.3207L18.5438 20.3914L18.6145 20.3207L20.3207 18.6145L20.3914 18.5438L20.3207 18.473L12.3477 10.5L20.3207 2.52696Z" fill="#141515" stroke="#141515" stroke-width="0.2"/>
</svg>
