<svg width="40" height="40" viewBox="0 0 40 40" fill="none" xmlns="http://www.w3.org/2000/svg">
<rect width="40" height="40" rx="10" fill="#EFF0FD"/>
<path d="M22.7406 14.3877L22.6483 14.3494C22.6868 14.2564 22.7433 14.1718 22.8146 14.1007C22.8146 14.1006 22.8146 14.1006 22.8147 14.1006L22.8853 14.1713L22.7406 14.3877ZM22.7406 14.3877L22.6482 14.3494C22.6097 14.4425 22.5898 14.5422 22.5898 14.643C22.5898 14.7438 22.6097 14.8435 22.6482 14.9366C22.6868 15.0296 22.7434 15.1142 22.8146 15.1854C23.2958 15.6667 23.5661 16.3194 23.5661 17C23.5661 17.6806 23.2958 18.3333 22.8146 18.8146M22.7406 14.3877L22.8146 18.8146M22.8146 18.8146C22.7434 18.8858 22.6869 18.9704 22.6483 19.0635C22.6098 19.1565 22.59 19.2563 22.59 19.357C22.59 19.4577 22.6098 19.5575 22.6483 19.6505C22.6869 19.7436 22.7434 19.8282 22.8146 19.8994C22.8858 19.9706 22.9704 20.0271 23.0635 20.0657C23.1565 20.1042 23.2563 20.124 23.357 20.124C23.4577 20.124 23.5575 20.1042 23.6505 20.0657C23.7436 20.0271 23.8282 19.9706 23.8994 19.8994C24.2802 19.5186 24.5822 19.0666 24.7883 18.5692C24.9944 18.0717 25.1005 17.5385 25.1005 17C25.1005 16.4615 24.9944 15.9283 24.7883 15.4308C24.5822 14.9334 24.2802 14.4814 23.8994 14.1007L22.8146 18.8146ZM23.2563 22.8137L23.2533 22.8257V22.8268C23.2085 23.0203 23.2404 23.2238 23.3427 23.3944C23.4472 23.5686 23.6166 23.6942 23.8137 23.7437L23.8137 23.7437C24.2291 23.8475 24.4808 24.0925 24.6479 24.426C24.8266 24.7841 24.9 25.238 24.9 25.6667C24.9 25.87 24.9808 26.065 25.1246 26.2088C25.2683 26.3526 25.4633 26.4333 25.6667 26.4333C25.87 26.4333 26.065 26.3526 26.2088 26.2088C26.3526 26.065 26.4333 25.87 26.4333 25.6667C26.4333 25.0961 26.3401 24.3826 26.0188 23.7407C25.686 23.0736 25.1037 22.4859 24.1856 22.2563L24.1855 22.2563C23.9884 22.2071 23.7798 22.2382 23.6056 22.3427C23.4314 22.4472 23.3058 22.6166 23.2563 22.8137ZM16.5184 15.1851C16.9998 14.7037 17.6526 14.4333 18.3333 14.4333C19.0141 14.4333 19.6669 14.7037 20.1482 15.1851C20.6296 15.6664 20.9 16.3193 20.9 17C20.9 17.6807 20.6296 18.3336 20.1482 18.8149C19.6669 19.2963 19.0141 19.5667 18.3333 19.5667C17.6526 19.5667 16.9998 19.2963 16.5184 18.8149C16.0371 18.3336 15.7667 17.6807 15.7667 17C15.7667 16.3193 16.0371 15.6664 16.5184 15.1851ZM15.4342 14.1009C14.6653 14.8698 14.2333 15.9126 14.2333 17C14.2333 18.0874 14.6653 19.1302 15.4342 19.8991C16.2031 20.668 17.2459 21.1 18.3333 21.1C19.4207 21.1 20.4636 20.668 21.2325 19.8991C22.0014 19.1302 22.4333 18.0874 22.4333 17C22.4333 15.9126 22.0014 14.8698 21.2325 14.1009C20.4636 13.332 19.4207 12.9 18.3333 12.9C17.2459 12.9 16.2031 13.332 15.4342 14.1009ZM14.4333 25.6667C14.4333 24.519 15.2261 23.7667 16 23.7667H20.6667C21.4406 23.7667 22.2333 24.519 22.2333 25.6667C22.2333 25.87 22.3141 26.065 22.4579 26.2088C22.6017 26.3526 22.7967 26.4333 23 26.4333C23.2033 26.4333 23.3983 26.3526 23.5421 26.2088C23.6859 26.065 23.7667 25.87 23.7667 25.6667C23.7667 23.8706 22.4728 22.2333 20.6667 22.2333H16C14.1939 22.2333 12.9 23.8706 12.9 25.6667C12.9 25.87 12.9808 26.065 13.1246 26.2088C13.2683 26.3526 13.4633 26.4333 13.6667 26.4333C13.87 26.4333 14.065 26.3526 14.2088 26.2088C14.3526 26.065 14.4333 25.87 14.4333 25.6667Z" fill="#5B69E8" stroke="#5B69E8" stroke-width="0.2"/>
</svg>
