<svg width="16" height="20" viewBox="0 0 16 20" fill="none" xmlns="http://www.w3.org/2000/svg">
<path d="M6.44444 18.4863H9.55556M13.4444 18.4863V2.94293C13.4444 2.42763 13.2806 1.93344 12.9888 1.56907C12.6971 1.2047 12.3014 1 11.8889 1H4.11111C3.69855 1 3.30289 1.2047 3.01117 1.56907C2.71944 1.93344 2.55556 2.42763 2.55556 2.94293V18.4863H13.4444ZM13.4444 18.4863H15H13.4444ZM13.4444 18.4863H9.55556H13.4444ZM2.55556 18.4863H1H2.55556ZM2.55556 18.4863H6.44444H2.55556ZM5.66667 4.88585H6.44444H5.66667ZM5.66667 8.7717H6.44444H5.66667ZM9.55556 4.88585H10.3333H9.55556ZM9.55556 8.7717H10.3333H9.55556ZM6.44444 18.4863V13.629C6.44444 13.3714 6.52639 13.1243 6.67225 12.9421C6.81811 12.7599 7.01594 12.6576 7.22222 12.6576H8.77778C8.98406 12.6576 9.18189 12.7599 9.32775 12.9421C9.47361 13.1243 9.55556 13.3714 9.55556 13.629V18.4863H6.44444Z" stroke="#8C939A" stroke-width="1.7" stroke-linecap="round" stroke-linejoin="round"/>
</svg>
