<svg width="40" height="40" viewBox="0 0 40 40" fill="none" xmlns="http://www.w3.org/2000/svg">
<rect width="40" height="40" rx="10" fill="#EEFAF4"/>
<path d="M18.4444 27H21.5556M25.4444 27V14.5556C25.4444 14.143 25.2806 13.7473 24.9888 13.4556C24.6971 13.1639 24.3014 13 23.8889 13H16.1111C15.6986 13 15.3029 13.1639 15.0112 13.4556C14.7194 13.7473 14.5556 14.143 14.5556 14.5556V27H25.4444ZM25.4444 27H27H25.4444ZM25.4444 27H21.5556H25.4444ZM14.5556 27H13H14.5556ZM14.5556 27H18.4444H14.5556ZM17.6667 16.1111H18.4444H17.6667ZM17.6667 19.2222H18.4444H17.6667ZM21.5556 16.1111H22.3333H21.5556ZM21.5556 19.2222H22.3333H21.5556ZM18.4444 27V23.1111C18.4444 22.9048 18.5264 22.707 18.6723 22.5611C18.8181 22.4153 19.0159 22.3333 19.2222 22.3333H20.7778C20.9841 22.3333 21.1819 22.4153 21.3277 22.5611C21.4736 22.707 21.5556 22.9048 21.5556 23.1111V27H18.4444Z" stroke="#30BE7A" stroke-width="1.7" stroke-linecap="round" stroke-linejoin="round"/>
</svg>
