<svg width="36" height="36" viewBox="0 0 36 36" fill="none" xmlns="http://www.w3.org/2000/svg">
<path d="M5.362 32.168C4.39133 32.168 3.55133 31.958 2.842 31.538C2.142 31.1087 1.60067 30.516 1.218 29.76C0.835333 28.9947 0.644 28.1127 0.644 27.114C0.644 26.106 0.835333 25.224 1.218 24.468C1.60067 23.7027 2.142 23.1053 2.842 22.676C3.55133 22.2467 4.39133 22.032 5.362 22.032C6.51 22.032 7.448 22.312 8.176 22.872C8.904 23.432 9.366 24.216 9.562 25.224H7.91C7.77933 24.6547 7.49933 24.202 7.07 23.866C6.64067 23.53 6.06667 23.362 5.348 23.362C4.368 23.362 3.59333 23.698 3.024 24.37C2.45467 25.0327 2.17 25.9473 2.17 27.114C2.17 28.2713 2.45467 29.1813 3.024 29.844C3.59333 30.5067 4.368 30.838 5.348 30.838C6.06667 30.838 6.64067 30.6793 7.07 30.362C7.49933 30.0447 7.77933 29.6107 7.91 29.06H9.562C9.366 30.0307 8.904 30.7913 8.176 31.342C7.448 31.8927 6.51 32.168 5.362 32.168ZM14.6652 32.168C14.0026 32.168 13.4052 32.0187 12.8732 31.72C12.3506 31.412 11.9352 30.9873 11.6272 30.446C11.3192 29.8953 11.1652 29.256 11.1652 28.528C11.1652 27.8 11.3192 27.1653 11.6272 26.624C11.9446 26.0733 12.3692 25.6487 12.9012 25.35C13.4332 25.042 14.0259 24.888 14.6792 24.888C15.3419 24.888 15.9346 25.042 16.4572 25.35C16.9892 25.6487 17.4092 26.0733 17.7172 26.624C18.0346 27.1653 18.1932 27.8 18.1932 28.528C18.1932 29.256 18.0346 29.8953 17.7172 30.446C17.4092 30.9873 16.9892 31.412 16.4572 31.72C15.9252 32.0187 15.3279 32.168 14.6652 32.168ZM14.6652 30.894C15.0199 30.894 15.3466 30.8053 15.6452 30.628C15.9532 30.4507 16.2006 30.1893 16.3872 29.844C16.5739 29.4893 16.6672 29.0507 16.6672 28.528C16.6672 28.0053 16.5739 27.5713 16.3872 27.226C16.2099 26.8713 15.9672 26.6053 15.6592 26.428C15.3606 26.2507 15.0339 26.162 14.6792 26.162C14.3246 26.162 13.9932 26.2507 13.6852 26.428C13.3866 26.6053 13.1439 26.8713 12.9572 27.226C12.7706 27.5713 12.6772 28.0053 12.6772 28.528C12.6772 29.0507 12.7706 29.4893 12.9572 29.844C13.1439 30.1893 13.3866 30.4507 13.6852 30.628C13.9839 30.8053 14.3106 30.894 14.6652 30.894ZM20.0781 35.08V25.056H21.4081L21.5621 26.134C21.7861 25.8073 22.0941 25.518 22.4861 25.266C22.8781 25.014 23.3821 24.888 23.9981 24.888C24.6701 24.888 25.2627 25.0467 25.7761 25.364C26.2894 25.6813 26.6907 26.1153 26.9801 26.666C27.2787 27.2167 27.4281 27.842 27.4281 28.542C27.4281 29.242 27.2787 29.8673 26.9801 30.418C26.6907 30.9593 26.2894 31.3887 25.7761 31.706C25.2627 32.014 24.6654 32.168 23.9841 32.168C23.4427 32.168 22.9621 32.0607 22.5421 31.846C22.1314 31.6313 21.8047 31.328 21.5621 30.936V35.08H20.0781ZM23.7321 30.88C24.3667 30.88 24.8894 30.6653 25.3001 30.236C25.7107 29.7973 25.9161 29.228 25.9161 28.528C25.9161 28.0707 25.8227 27.6647 25.6361 27.31C25.4494 26.9553 25.1927 26.68 24.8661 26.484C24.5394 26.2787 24.1614 26.176 23.7321 26.176C23.0974 26.176 22.5747 26.3953 22.1641 26.834C21.7627 27.2727 21.5621 27.8373 21.5621 28.528C21.5621 29.228 21.7627 29.7973 22.1641 30.236C22.5747 30.6653 23.0974 30.88 23.7321 30.88ZM29.5373 35.08L31.2033 31.426H30.7973L28.0533 25.056H29.6633L31.7913 30.194L34.0173 25.056H35.5853L31.1053 35.08H29.5373Z" fill="#4C4E51"/>
<path d="M10.5 3C10.5 2.60218 10.658 2.22064 10.9393 1.93934C11.2206 1.65804 11.6022 1.5 12 1.5H19.5C19.8978 1.5 20.2794 1.65804 20.5607 1.93934C20.842 2.22064 21 2.60218 21 3V6H24C24.3978 6 24.7794 6.15804 25.0607 6.43934C25.342 6.72064 25.5 7.10218 25.5 7.5V15C25.5 15.3978 25.342 15.7794 25.0607 16.0607C24.7794 16.342 24.3978 16.5 24 16.5H16.5C16.1022 16.5 15.7206 16.342 15.4393 16.0607C15.158 15.7794 15 15.3978 15 15V12H12C11.6022 12 11.2206 11.842 10.9393 11.5607C10.658 11.2794 10.5 10.8978 10.5 10.5V3ZM16.5 12V15H24V7.5H21V10.5C21 10.8978 20.842 11.2794 20.5607 11.5607C20.2794 11.842 19.8978 12 19.5 12H16.5ZM19.5 10.5V3H12V10.5H19.5Z" fill="#141515"/>
</svg>
