<svg width="18" height="17" viewBox="0 0 18 17" fill="none" xmlns="http://www.w3.org/2000/svg">
<path d="M13.2242 1.74772L13.2353 1.75879L15.2903 3.81377C15.7528 4.25935 16.0215 4.86918 16.0381 5.51156C16.0548 6.15848 15.8144 6.78566 15.3695 7.25564L15.3601 7.2656L15.3504 7.2753L8.57595 14.0498L8.57297 14.0527C8.16463 14.4576 7.62942 14.7098 7.05718 14.7668L7.04881 14.7676L7.04881 14.7676L3.90998 15.0536L3.8647 15.0577H3.81923H3.7539H3.75149V14.0577C3.65242 14.0583 3.55422 14.0393 3.46251 14.0019C3.3708 13.9644 3.28739 13.9092 3.21706 13.8394L13.2242 1.74772ZM13.2242 1.74772L13.2128 1.73701C12.7648 1.31622 12.1778 1.07478 11.5634 1.05861C10.949 1.04244 10.3501 1.25267 9.88058 1.64932L9.84851 1.67641L9.81883 1.7061L3.04438 8.48054L3.04437 8.48054L3.04141 8.48352C2.63695 8.8914 2.38494 9.42586 2.32756 9.99736L13.2242 1.74772ZM12.1136 5.5656L12.0403 5.63709L11.4194 5.01624L11.4909 4.94292L12.1136 5.5656Z" fill="#3286D4" stroke="white" stroke-width="2"/>
</svg>
