<svg width="16" height="16" viewBox="0 0 16 16" fill="none" xmlns="http://www.w3.org/2000/svg">
  <path d="M7.99999 4C7.30468 4.00088 6.63811 4.27748 6.14645 4.76914C5.6548 5.26079 5.3782 5.92736 5.37732 6.62267H6.71065C6.71065 5.91133 7.28932 5.33333 7.99999 5.33333C8.71065 5.33333 9.28932 5.91133 9.28932 6.62267C9.28932 7.02133 8.96865 7.31067 8.47865 7.70667C8.31858 7.83207 8.16483 7.96534 8.01799 8.106C7.35265 8.77067 7.33332 9.47667 7.33332 9.55533V10H8.66665L8.66599 9.578C8.66665 9.56733 8.68799 9.32067 8.95999 9.04933C9.05999 8.94933 9.18599 8.84933 9.31665 8.744C9.83599 8.32333 10.622 7.688 10.622 6.62267C10.6215 5.92737 10.3451 5.26069 9.85348 4.76898C9.36189 4.27727 8.69528 4.00071 7.99999 4ZM7.33332 10.6667H8.66665V12H7.33332V10.6667Z" fill="#8C939A"/>
  <path d="M8.00004 1.33331C4.32404 1.33331 1.33337 4.32398 1.33337 7.99998C1.33337 11.676 4.32404 14.6666 8.00004 14.6666C11.676 14.6666 14.6667 11.676 14.6667 7.99998C14.6667 4.32398 11.676 1.33331 8.00004 1.33331ZM8.00004 13.3333C5.05937 13.3333 2.66671 10.9406 2.66671 7.99998C2.66671 5.05931 5.05937 2.66665 8.00004 2.66665C10.9407 2.66665 13.3334 5.05931 13.3334 7.99998C13.3334 10.9406 10.9407 13.3333 8.00004 13.3333Z" fill="#8C939A"/>
</svg>
