<svg width="14" height="14" viewBox="0 0 14 14" fill="none" xmlns="http://www.w3.org/2000/svg">
<path d="M10.074 1.72105L9.98162 1.68276C10.0202 1.58972 10.0767 1.50519 10.148 1.43401C10.148 1.43398 10.148 1.43395 10.148 1.43393L10.2187 1.50468L10.074 1.72105ZM10.074 1.72105L9.98162 1.68276C9.94304 1.77583 9.92318 1.87559 9.92318 1.97634C9.92318 2.0771 9.94304 2.17686 9.98162 2.26993C10.0202 2.36298 10.0767 2.44752 10.148 2.51871C10.6292 3.00003 10.8995 3.65276 10.8995 4.33334C10.8995 5.01393 10.6292 5.66665 10.148 6.14797M10.074 1.72105L10.148 6.14797M10.148 6.14797C10.0768 6.21919 10.0203 6.30375 9.98172 6.39681C9.94318 6.48987 9.92334 6.58961 9.92334 6.69034C9.92334 6.79107 9.94318 6.89081 9.98172 6.98388C10.0203 7.07694 10.0768 7.1615 10.148 7.23272C10.2192 7.30395 10.3038 7.36045 10.3968 7.39899C10.4899 7.43754 10.5896 7.45738 10.6904 7.45738C10.7911 7.45738 10.8908 7.43754 10.9839 7.39899C11.077 7.36045 11.1615 7.30395 11.2328 7.23272C11.6135 6.85199 11.9156 6.39998 12.1217 5.90251C12.3278 5.40503 12.4339 4.87182 12.4339 4.33334C12.4339 3.79487 12.3278 3.26166 12.1217 2.76418C11.9156 2.26672 11.6136 1.81473 11.2328 1.43401L10.148 6.14797ZM10.5897 10.147L10.5867 10.159V10.1602C10.5418 10.3536 10.5738 10.5571 10.6761 10.7277C10.7806 10.902 10.95 11.0276 11.147 11.077L11.1471 11.077C11.5625 11.1809 11.8142 11.4259 11.9812 11.7593C12.16 12.1175 12.2334 12.5713 12.2334 13C12.2334 13.2033 12.3141 13.3983 12.4579 13.5421C12.6017 13.6859 12.7967 13.7667 13 13.7667C13.2034 13.7667 13.3984 13.6859 13.5422 13.5421C13.6859 13.3983 13.7667 13.2033 13.7667 13C13.7667 12.4294 13.6734 11.7159 13.3522 11.074C13.0193 10.407 12.4371 9.8192 11.519 9.58966L11.5189 9.58965C11.3218 9.54048 11.1132 9.57156 10.939 9.67606C10.7648 9.78057 10.6391 9.94996 10.5897 10.147ZM3.8518 2.51844C4.33314 2.03709 4.98599 1.76668 5.66671 1.76668C6.34743 1.76668 7.00027 2.03709 7.48162 2.51844C7.96296 2.99978 8.23337 3.65262 8.23337 4.33334C8.23337 5.01407 7.96296 5.66691 7.48162 6.14825C7.00027 6.62959 6.34743 6.90001 5.66671 6.90001C4.98599 6.90001 4.33314 6.62959 3.8518 6.14825C3.37046 5.66691 3.10004 5.01407 3.10004 4.33334C3.10004 3.65262 3.37046 2.99978 3.8518 2.51844ZM2.76757 1.43421C1.99867 2.2031 1.56671 3.24596 1.56671 4.33334C1.56671 5.42073 1.99867 6.46358 2.76757 7.23248C3.53647 8.00138 4.57932 8.43334 5.66671 8.43334C6.7541 8.43334 7.79695 8.00138 8.56584 7.23248C9.33474 6.46358 9.76671 5.42073 9.76671 4.33334C9.76671 3.24596 9.33474 2.2031 8.56585 1.43421C7.79695 0.665307 6.7541 0.233344 5.66671 0.233344C4.57932 0.233344 3.53647 0.665307 2.76757 1.43421ZM1.76671 13C1.76671 11.8524 2.55946 11.1 3.33337 11.1H8.00004C8.77395 11.1 9.56671 11.8524 9.56671 13C9.56671 13.2033 9.64748 13.3983 9.79126 13.5421C9.93504 13.6859 10.13 13.7667 10.3334 13.7667C10.5367 13.7667 10.7317 13.6859 10.8755 13.5421C11.0193 13.3983 11.1 13.2033 11.1 13C11.1 11.2039 9.80612 9.56668 8.00004 9.56668H3.33337C1.52729 9.56668 0.233374 11.2039 0.233374 13C0.233374 13.2033 0.314147 13.3983 0.457925 13.5421C0.601703 13.6859 0.796708 13.7667 1.00004 13.7667C1.20337 13.7667 1.39838 13.6859 1.54216 13.5421C1.68593 13.3983 1.76671 13.2033 1.76671 13Z" fill="#8C939A" stroke="#8C939A" stroke-width="0.2"/>
</svg>
