<svg width="18" height="18" viewBox="0 0 18 18" fill="none" xmlns="http://www.w3.org/2000/svg">
<path d="M15.75 3.75L9 0.75L2.25 3.75V8.25C2.25 12.4125 5.13 16.305 9 17.25C10.725 16.83 12.2475 15.825 13.41 14.4675L11.07 12.1275C10.349 12.604 9.48542 12.8166 8.62562 12.7291C7.76582 12.6416 6.96273 12.2595 6.3525 11.6475C5.65003 10.944 5.25548 9.99043 5.25548 8.99625C5.25548 8.00207 5.65003 7.04852 6.3525 6.345C7.05602 5.64253 8.00957 5.24798 9.00375 5.24798C9.99793 5.24798 10.9515 5.64253 11.655 6.345C12.2655 6.95611 12.6466 7.75903 12.734 8.61838C12.8214 9.47774 12.6099 10.341 12.135 11.0625L14.31 13.2375C15.2175 11.7675 15.75 10.035 15.75 8.25V3.75Z" fill="#C0C7D6"/>
<path d="M9 11.25C10.2426 11.25 11.25 10.2426 11.25 9C11.25 7.75736 10.2426 6.75 9 6.75C7.75736 6.75 6.75 7.75736 6.75 9C6.75 10.2426 7.75736 11.25 9 11.25Z" fill="#C0C7D6"/>
</svg>
