<svg width="21" height="17" viewBox="0 0 21 17" fill="none" xmlns="http://www.w3.org/2000/svg">
  <path fill-rule="evenodd" clip-rule="evenodd" d="M7.55551 0.999999C7.55551 0.447715 8.00322 0 8.55551 0H12.2222C12.7745 0 13.2222 0.447715 13.2222 1V4.66667C13.2222 5.21895 12.7745 5.66667 12.2222 5.66667H11.4445V7.5H15.9445C17.6013 7.5 18.9445 8.84315 18.9445 10.5V11.3333H19.7778C20.33 11.3333 20.7778 11.781 20.7778 12.3333V16C20.7778 16.5523 20.33 17 19.7778 17H16.1111C15.5588 17 15.1111 16.5523 15.1111 16V12.3333C15.1111 11.781 15.5588 11.3333 16.1111 11.3333H16.9445V10.5C16.9445 9.94771 16.4968 9.5 15.9445 9.5H11.4445V11.3333H12.2222C12.7745 11.3333 13.2222 11.781 13.2222 12.3333V16C13.2222 16.5523 12.7745 17 12.2222 17H8.55551C8.00322 17 7.55551 16.5523 7.55551 16V12.3333C7.55551 11.781 8.00322 11.3333 8.55551 11.3333H9.44449V9.5H4.83333C4.28105 9.5 3.83333 9.94771 3.83333 10.5V11.3333H4.66667C5.21895 11.3333 5.66667 11.781 5.66667 12.3333V16C5.66667 16.5523 5.21895 17 4.66667 17H0.999999C0.447715 17 0 16.5523 0 16V12.3333C0 11.781 0.447715 11.3333 1 11.3333H1.83333V10.5C1.83333 8.84315 3.17648 7.5 4.83333 7.5H9.44449V5.66667H8.55551C8.00322 5.66667 7.55551 5.21895 7.55551 4.66667V0.999999Z" fill="#C0C7D6"/>
</svg>
