<svg width="16" height="12" viewBox="0 0 16 12" fill="none" xmlns="http://www.w3.org/2000/svg">
  <rect width="16" height="12" rx="2" fill="#C0C7D6"/>
  <path d="M6.544 9V7.024H6.08V6.432H6.544V5.856H6.08V5.264H6.544V3.288H7.8L8.424 5.264H9.152V3.288H10.04V5.264H10.496V5.856H10.04V6.432H10.496V7.024H10.04V9H8.776L8.136 7.024H7.432V9H6.544ZM7.4 5.264H7.624L7.392 4.496H7.36L7.4 5.264ZM7.432 6.432H7.96L7.784 5.856H7.416L7.432 6.432ZM8.8 6.432H9.168L9.152 5.856H8.616L8.8 6.432ZM9.176 7.752H9.216L9.184 7.024H8.968L9.176 7.752Z" fill="white"/>
</svg>
